HIERARCHY
ROOT hip
{
	OFFSET 0.000000 0.000000 0.000000 
	CHANNELS 6 Xposition Yposition Zposition Xrotation Zrotation Yrotation
	JOINT abdomen
	{
		OFFSET 0.000000 3.402643 0.000000 
		CHANNELS 3 Xrotation Zrotation Yrotation
		JOINT chest
		{
			OFFSET 0.000000 8.438565 -0.680529 
			CHANNELS 3 Xrotation Zrotation Yrotation
			JOINT neck
			{
				OFFSET 0.000000 10.207942 -0.272212 
				CHANNELS 3 Xrotation Zrotation Yrotation
				JOINT head
				{
					OFFSET 0.000000 3.130431 0.000000 
					CHANNELS 3 Xrotation Zrotation Yrotation
					End Site
					{
						OFFSET 0.000000 3.130435 0.000000 
					}
				}
			}
			JOINT lCollar
			{
				OFFSET 3.470700 6.669187 -0.816635 
				CHANNELS 3 Yrotation Zrotation Xrotation
				JOINT lShldr
				{
					OFFSET 3.198488 0.000000 0.000000 
					CHANNELS 3 Zrotation Yrotation Xrotation
					JOINT lForeArm
					{
						OFFSET 10.139888 0.000000 0.000000 
						CHANNELS 3 Yrotation Zrotation Xrotation
						JOINT lHand
						{
							OFFSET 8.370511 0.000000 0.000000 
							CHANNELS 3 Zrotation Yrotation Xrotation
							End Site
							{
								OFFSET 4.083176 0.000000 0.000000 
							}
						}
					}
				}
			}
			JOINT rCollar
			{
				OFFSET -3.470700 6.669187 -0.816635 
				CHANNELS 3 Yrotation Zrotation Xrotation
				JOINT rShldr
				{
					OFFSET -3.198488 0.000000 0.000000 
					CHANNELS 3 Zrotation Yrotation Xrotation
					JOINT rForeArm
					{
						OFFSET -10.139888 0.000000 0.000000 
						CHANNELS 3 Yrotation Zrotation Xrotation
						JOINT rHand
						{
							OFFSET -8.370511 0.000000 0.000000 
							CHANNELS 3 Zrotation Yrotation Xrotation
							End Site
							{
								OFFSET -4.083176 0.000000 0.000000 
							}
						}
					}
				}
			}
		}
	}
	JOINT lThigh
	{
		OFFSET 5.308129 -1.633274 1.361059 
		CHANNELS 3 Xrotation Zrotation Yrotation
		JOINT lShin
		{
			OFFSET -2.041588 -20.007561 0.000000 
			CHANNELS 3 Xrotation Zrotation Yrotation
			JOINT lFoot
			{
				OFFSET 0.000000 -19.190928 -1.224953 
				CHANNELS 3 Xrotation Yrotation Zrotation
				End Site
				{
					OFFSET 0.000000 -2.449906 4.627600 
				}
			}
		}
	}
	JOINT rThigh
	{
		OFFSET -5.308129 -1.633274 1.361059 
		CHANNELS 3 Xrotation Zrotation Yrotation
		JOINT rShin
		{
			OFFSET 2.041588 -20.007561 0.000000 
			CHANNELS 3 Xrotation Zrotation Yrotation
			JOINT rFoot
			{
				OFFSET 0.000000 -19.190928 -1.224953 
				CHANNELS 3 Xrotation Yrotation Zrotation
				End Site
				{
					OFFSET 0.000000 -2.449906 4.627600 
				}
			}
		}
	}
}
MOTION
Frames: 11
Frame Time: 0.016667
62.398525 55.188446 7.768990 -5.157924 6.273526 -97.020035 -2.953723 0.190848 -3.090805 4.945527 3.987919 -1.584399 -1.319777 2.293926 -10.606985 17.660702 6.191972 -4.815178 -0.966184 -2.090659 -0.113862 -86.100815 25.132309 -48.902576 -39.431892 -0.446942 24.839371 1.531821 -3.334723 -21.184475 0.956406 2.080914 -0.113715 82.181557 -21.107290 -57.085808 69.608101 0.937773 -0.507180 -1.509753 3.242353 -19.815628 -12.587219 -8.417441 12.495242 23.805452 5.698387 3.184401 -22.692854 8.302145 3.341331 -12.941483 -4.247431 11.007983 28.620367 -6.259308 -3.394277 -14.605990 -13.763092 0.780455 
62.533115 55.094482 7.828762 -4.735312 6.258034 -98.309357 -2.795781 0.129337 -2.978617 4.973643 3.549050 -1.524823 -1.010436 2.428759 -10.472035 17.866272 6.149853 -4.711428 -0.966184 -2.090659 -0.113862 -86.367363 24.279037 -47.320904 -39.284355 -0.445304 24.847460 1.533935 -3.333951 -18.987778 0.956406 2.080914 -0.113715 82.824432 -20.216234 -55.936184 69.315216 0.940624 -0.510803 -1.511690 3.241671 -19.063681 -13.710726 -7.382098 13.731328 26.135201 5.668204 3.390985 -22.775686 7.552598 2.967257 -13.067227 -4.071721 10.503292 28.014750 -6.230002 -3.357616 -15.261914 -11.256505 1.218882 
62.639446 55.047260 7.957030 -4.907067 5.692089 -99.774513 -2.754288 0.129850 -2.812447 4.554530 3.622919 -1.458591 -1.491111 2.234516 -10.422820 17.669693 6.143585 -4.694825 -0.966184 -2.090659 -0.113862 -87.140404 23.697897 -46.043770 -39.614822 -0.449861 24.844707 1.536921 -3.333014 -15.931138 0.956406 2.080914 -0.113715 82.684662 -19.781523 -54.268013 69.032104 0.943397 -0.514292 -1.512674 3.241335 -18.682821 -14.370491 -7.088909 14.506857 28.723534 5.589972 3.626414 -22.391516 6.614510 2.436965 -13.049880 -4.520743 10.266133 28.050922 -6.249028 -3.362936 -15.401841 -9.190580 1.747376 
62.745544 54.949993 8.117563 -4.454589 5.559433 -101.076805 -2.624556 0.012284 -2.604696 4.443660 3.021102 -1.367406 -1.733069 2.318745 -10.528802 17.609785 6.086712 -4.719990 -0.966184 -2.090659 -0.113862 -86.885796 23.097641 -43.220284 -40.347160 -0.454561 24.834408 1.527968 -3.332791 -15.090717 0.956406 2.080914 -0.113715 83.067055 -19.434895 -52.251804 68.836861 0.945320 -0.516690 -1.512877 3.241266 -18.604698 -15.592056 -5.946558 14.914000 31.958687 5.492311 3.878917 -21.068348 6.684740 2.225952 -13.220959 -4.364798 9.085729 27.657597 -6.253284 -3.318491 -14.815809 -7.268727 2.289384 
62.862823 54.799744 8.246913 -3.470937 5.127346 -102.732079 -2.346956 0.312999 -2.277194 4.363679 2.931046 -1.200816 -1.814445 2.549119 -10.434650 17.641058 6.192307 -4.631738 -0.966184 -2.090659 -0.113862 -87.341499 22.061985 -40.925903 -41.284477 -0.471453 24.822668 1.531362 -3.342000 -14.065330 0.956406 2.080914 -0.113715 83.001007 -18.594324 -50.276127 68.397415 0.937001 -0.516578 -1.514980 3.240576 -17.794706 -16.533522 -4.024008 15.084444 35.825256 5.382446 4.147645 -20.269962 4.239713 1.082107 -12.834147 -3.397754 9.467276 27.161921 -6.224321 -3.293582 -14.424593 -6.601803 2.525337 
62.960789 54.809162 8.393552 -3.342035 4.845301 -104.276558 -2.333356 0.120607 -1.907453 4.145909 2.788352 -1.021293 -2.282002 2.452918 -10.512970 17.343864 6.042817 -4.677219 -0.966184 -2.090659 -0.113862 -87.040970 21.347107 -38.637859 -42.477928 -0.493801 24.813673 1.542467 -3.341681 -12.474111 0.956406 2.080914 -0.113715 83.619530 -18.162823 -48.721111 68.065491 0.940287 -0.520688 -1.516761 3.240017 -17.111113 -17.363474 -2.938880 14.914220 38.696449 5.229525 4.366491 -18.587469 2.413612 0.227985 -12.971639 -3.310477 10.189074 27.044617 -6.209883 -3.288395 -14.466890 -5.391288 2.850110 
63.008720 54.819290 8.573254 -3.144917 4.602463 -105.711563 -2.146878 0.247194 -1.811391 4.286514 2.987500 -0.989261 -2.126556 2.670907 -10.490660 17.462812 6.108451 -4.644642 -0.966184 -2.090659 -0.113862 -87.414932 20.480011 -36.288303 -44.113426 -0.515656 24.791201 1.545095 -3.351106 -11.703198 0.956406 2.080914 -0.113715 83.265465 -17.297945 -46.481689 67.098885 0.937196 -0.527350 -1.523286 3.248281 -15.626742 -17.920444 -1.944764 13.609962 41.019428 5.127346 4.504119 -16.284718 -1.314463 -1.079343 -13.142428 -3.231972 10.440007 26.920237 -6.224652 -3.269878 -14.348042 -4.127451 3.174644 
63.082664 54.870865 8.780217 -2.909235 4.466915 -107.120613 -2.125690 0.347012 -1.620084 4.270967 3.189483 -0.896075 -1.734821 3.161077 -10.534794 17.642397 6.269462 -4.629296 -0.966184 -2.090659 -0.113862 -87.518333 19.812523 -33.585350 -45.952465 -0.538069 24.781923 1.545631 -3.350999 -10.902417 0.956406 2.080914 -0.113715 82.873917 -16.578707 -44.393322 66.093353 0.947415 -0.539735 -1.525168 3.247769 -14.865581 -18.320580 -0.946908 11.557753 42.928337 5.072670 4.593736 -14.993508 -5.527107 -2.314178 -13.160385 -2.919706 12.004377 26.660360 -6.213852 -3.234466 -14.095306 -4.167892 3.236953 
63.076073 54.838837 9.019796 -3.229592 3.753811 -108.580353 -1.959422 -0.139282 -1.575946 4.314108 2.895324 -0.884794 -0.929429 3.759136 -10.274897 17.959017 6.389205 -4.466165 -0.966184 -2.090659 -0.113862 -86.610855 19.544903 -30.281586 -48.194817 -0.571306 24.749371 1.545284 -3.351068 -11.419994 0.956406 2.080914 -0.113715 83.175400 -15.910138 -41.781773 65.497726 0.940633 -0.542151 -1.526305 3.247472 -14.406599 -18.084436 -0.869331 10.409098 44.033730 5.058350 4.654148 -14.534812 -5.778320 -2.322049 -12.881716 -3.408356 13.437035 26.710865 -6.254903 -3.224726 -14.144022 -4.187582 3.291022 
63.015079 54.911610 9.376175 -3.501651 3.226400 -109.679428 -2.027560 -0.501328 -1.525277 4.073424 2.551007 -0.867347 -0.351345 4.144598 -10.262011 18.197392 6.519663 -4.446734 -0.966184 -2.090659 -0.113862 -86.063454 19.293745 -27.442520 -50.249706 -0.594635 24.732416 1.545481 -3.351029 -11.127027 0.956406 2.080914 -0.113715 83.095322 -15.778168 -39.142170 64.833885 0.947526 -0.550307 -1.526887 3.247324 -14.172222 -17.755814 -0.957880 7.891134 44.753395 5.055541 4.696107 -14.397045 -4.463403 -2.031005 -12.662008 -4.257532 12.899226 26.322651 -6.321873 -3.193393 -14.134786 -2.729940 3.600627 
62.968918 54.994507 9.738689 -4.526544 2.706388 -111.102608 -2.212717 -0.873973 -1.433557 3.940619 2.791983 -0.835962 -0.579640 3.879919 -10.156616 17.989206 6.427207 -4.437037 -0.966184 -2.090659 -0.113862 -85.602676 18.929525 -24.929432 -52.350735 -0.619183 24.700211 1.545887 -3.350951 -10.521557 0.956406 2.080914 -0.113715 82.772758 -15.719168 -36.529510 64.208977 0.941058 -0.553367 -1.529706 3.246643 -13.039415 -17.588165 -1.649850 6.173855 44.917080 5.081295 4.678215 -14.488320 -1.521723 -1.259441 -12.726791 -5.740798 13.306162 25.647263 -6.399512 -3.120023 -13.837300 -1.533946 3.859550 
